<svg width="1319" height="934" viewBox="0 0 1319 934" fill="none" xmlns="http://www.w3.org/2000/svg">
<line x1="657.5" y1="-2.18557e-08" x2="657.5" y2="898" stroke="#E1D0D0" stroke-opacity="0.41"/>
<path d="M659.232 675.933C659.232 675.933 687.566 576.052 716.393 561.174C745.219 546.296 746.605 839.595 746.605 839.595" stroke="#E1D0D0" stroke-opacity="0.41"/>
<path d="M657.376 676.052C657.376 676.052 846.731 576.589 942.377 626.585C1041.69 678.498 1032.94 877.196 1032.94 877.196" stroke="#E1D0D0" stroke-opacity="0.41"/>
<path d="M658.416 672.898C658.416 672.898 756.053 711.439 815.479 741.462C883.7 775.927 982.943 840.279 982.943 840.279" stroke="#E1D0D0" stroke-opacity="0.41"/>
<path d="M663.07 673.252C663.07 673.252 708.522 707.353 734.347 732.163C762.747 759.447 800.37 807.157 800.37 807.157" stroke="#E1D0D0" stroke-opacity="0.41"/>
<path d="M662.307 672.781C662.307 672.781 836.021 679.134 938.217 713.565C1050.03 751.234 1194.86 862.48 1194.86 862.48" stroke="#E1D0D0" stroke-opacity="0.41"/>
<path d="M662.183 672.74C662.183 672.74 875.156 637.089 1001.54 672.741C1131.96 709.531 1286.27 855 1286.27 855" stroke="#E1D0D0" stroke-opacity="0.41"/>
<path d="M662.013 672.699C662.013 672.699 868.501 662.475 995.364 689.387C1120.89 716.016 1298.59 806.604 1298.59 806.604" stroke="#E1D0D0" stroke-opacity="0.41"/>
<path d="M661.799 672.664C661.799 672.664 855.985 611.31 980.617 628.015C1096.2 643.506 1252.61 739.617 1252.61 739.617" stroke="#E1D0D0" stroke-opacity="0.41"/>
<path d="M662.622 669.203C662.622 669.203 860.122 542.802 983.983 581.519C1140.75 630.521 1145.25 933.293 1145.25 933.293" stroke="#E1D0D0" stroke-opacity="0.41"/>
<path d="M659.768 675.933C659.768 675.933 631.433 576.052 602.607 561.174C573.781 546.296 572.395 839.595 572.395 839.595" stroke="#E1D0D0" stroke-opacity="0.41"/>
<path d="M661.624 676.052C661.624 676.052 472.269 576.589 376.622 626.585C277.308 678.498 286.062 877.196 286.062 877.196" stroke="#E1D0D0" stroke-opacity="0.41"/>
<path d="M660.584 672.898C660.584 672.898 562.947 711.439 503.521 741.462C435.3 775.927 336.056 840.279 336.056 840.279" stroke="#E1D0D0" stroke-opacity="0.41"/>
<path d="M655.93 673.252C655.93 673.252 610.477 707.353 584.653 732.163C556.252 759.447 518.629 807.157 518.629 807.157" stroke="#E1D0D0" stroke-opacity="0.41"/>
<path d="M656.693 672.781C656.693 672.781 482.979 679.134 380.783 713.565C268.972 751.234 124.135 862.48 124.135 862.48" stroke="#E1D0D0" stroke-opacity="0.41"/>
<path d="M656.817 672.74C656.817 672.74 443.844 637.089 317.458 672.741C187.038 709.531 32.7254 855 32.7254 855" stroke="#E1D0D0" stroke-opacity="0.41"/>
<path d="M656.987 672.699C656.987 672.699 450.498 662.475 323.635 689.387C198.109 716.016 20.4136 806.604 20.4136 806.604" stroke="#E1D0D0" stroke-opacity="0.41"/>
<path d="M657.201 672.664C657.201 672.664 463.014 611.31 338.383 628.015C222.803 643.506 66.3945 739.617 66.3945 739.617" stroke="#E1D0D0" stroke-opacity="0.41"/>
<path d="M656.378 669.203C656.378 669.203 458.878 542.802 335.016 581.519C178.252 630.521 173.747 933.293 173.747 933.293" stroke="#E1D0D0" stroke-opacity="0.41"/>
</svg>
