<svg width="1359" height="934" viewBox="0 0 1359 934" fill="none" xmlns="http://www.w3.org/2000/svg">
<line x1="657.5" y1="-2.18557e-08" x2="657.5" y2="898" stroke="#E1D0D0" stroke-opacity="0.41"/>
<path d="M659.232 675.933C659.232 675.933 687.566 576.052 716.392 561.174C745.219 546.296 746.605 839.595 746.605 839.595" stroke="#E1D0D0" stroke-opacity="0.41"/>
<path d="M657.376 676.052C657.376 676.052 846.731 576.589 942.377 626.585C1041.69 678.498 1032.94 877.196 1032.94 877.196" stroke="#E1D0D0" stroke-opacity="0.41"/>
<path d="M658.416 672.898C658.416 672.898 756.052 711.439 815.479 741.462C883.7 775.927 982.943 840.279 982.943 840.279" stroke="#E1D0D0" stroke-opacity="0.41"/>
<path d="M663.07 673.252C663.07 673.252 708.522 707.353 734.347 732.163C762.747 759.447 800.37 807.157 800.37 807.157" stroke="#E1D0D0" stroke-opacity="0.41"/>
<path d="M662.307 672.781C662.307 672.781 836.02 679.134 938.217 713.565C1050.03 751.234 1194.86 862.48 1194.86 862.48" stroke="#E1D0D0" stroke-opacity="0.41"/>
<path d="M662.183 672.74C662.183 672.74 875.156 637.089 1001.54 672.741C1131.96 709.531 1286.27 855 1286.27 855" stroke="#E1D0D0" stroke-opacity="0.41"/>
<path d="M662.013 672.699C662.013 672.699 868.501 662.475 995.364 689.387C1120.89 716.016 1298.59 806.604 1298.59 806.604" stroke="#E1D0D0" stroke-opacity="0.41"/>
<path d="M661.798 672.664C661.798 672.664 855.985 611.31 980.617 628.015C1096.2 643.506 1252.6 739.617 1252.6 739.617" stroke="#E1D0D0" stroke-opacity="0.41"/>
<path d="M662.621 669.203C662.621 669.203 860.122 542.802 983.983 581.519C1140.75 630.521 1145.25 933.293 1145.25 933.293" stroke="#E1D0D0" stroke-opacity="0.41"/>
<path d="M659.768 675.933C659.768 675.933 631.433 576.052 602.607 561.174C573.78 546.296 572.395 839.595 572.395 839.595" stroke="#E1D0D0" stroke-opacity="0.41"/>
<path d="M661.624 676.052C661.624 676.052 472.268 576.589 376.622 626.585C277.308 678.498 286.062 877.196 286.062 877.196" stroke="#E1D0D0" stroke-opacity="0.41"/>
<path d="M660.584 672.898C660.584 672.898 562.947 711.439 503.52 741.462C435.3 775.927 336.056 840.279 336.056 840.279" stroke="#E1D0D0" stroke-opacity="0.41"/>
<path d="M655.929 673.252C655.929 673.252 610.477 707.353 584.652 732.163C556.252 759.447 518.629 807.157 518.629 807.157" stroke="#E1D0D0" stroke-opacity="0.41"/>
<path d="M656.693 672.781C656.693 672.781 482.979 679.134 380.783 713.565C268.972 751.234 124.135 862.48 124.135 862.48" stroke="#E1D0D0" stroke-opacity="0.41"/>
<path d="M656.817 672.74C656.817 672.74 443.844 637.089 317.458 672.741C187.038 709.531 32.7253 855 32.7253 855" stroke="#E1D0D0" stroke-opacity="0.41"/>
<path d="M656.987 672.699C656.987 672.699 450.498 662.475 323.635 689.387C198.109 716.016 20.4135 806.604 20.4135 806.604" stroke="#E1D0D0" stroke-opacity="0.41"/>
<path d="M657.201 672.664C657.201 672.664 463.014 611.31 338.382 628.015C222.803 643.506 66.3944 739.617 66.3944 739.617" stroke="#E1D0D0" stroke-opacity="0.41"/>
<path d="M656.378 669.203C656.378 669.203 458.878 542.802 335.016 581.519C178.252 630.521 173.747 933.293 173.747 933.293" stroke="#E1D0D0" stroke-opacity="0.41"/>
<path d="M909.182 366.364L909.318 362.614L906.148 364.625L905.33 363.193L908.67 361.455L905.33 359.716L906.148 358.284L909.318 360.295L909.182 356.545H910.818L910.682 360.295L913.852 358.284L914.67 359.716L911.33 361.455L914.67 363.193L913.852 364.625L910.682 362.614L910.818 366.364H909.182Z" fill="#997D7E" fill-opacity="0.83"/>
<path d="M428.182 260.364L428.318 256.614L425.148 258.625L424.33 257.193L427.67 255.455L424.33 253.716L425.148 252.284L428.318 254.295L428.182 250.545H429.818L429.682 254.295L432.852 252.284L433.67 253.716L430.33 255.455L433.67 257.193L432.852 258.625L429.682 256.614L429.818 260.364H428.182Z" fill="#997D7E" fill-opacity="0.83"/>
<path d="M321.182 395.364L321.318 391.614L318.148 393.625L317.33 392.193L320.67 390.455L317.33 388.716L318.148 387.284L321.318 389.295L321.182 385.545H322.818L322.682 389.295L325.852 387.284L326.67 388.716L323.33 390.455L326.67 392.193L325.852 393.625L322.682 391.614L322.818 395.364H321.182Z" fill="#997D7E" fill-opacity="0.83"/>
<path d="M34.1818 296.364L34.3182 292.614L31.1477 294.625L30.3295 293.193L33.6705 291.455L30.3295 289.716L31.1477 288.284L34.3182 290.295L34.1818 286.545H35.8182L35.6818 290.295L38.8523 288.284L39.6705 289.716L36.3295 291.455L39.6705 293.193L38.8523 294.625L35.6818 292.614L35.8182 296.364H34.1818Z" fill="#997D7E" fill-opacity="0.83"/>
<path d="M1124.18 319.364L1124.32 315.614L1121.15 317.625L1120.33 316.193L1123.67 314.455L1120.33 312.716L1121.15 311.284L1124.32 313.295L1124.18 309.545H1125.82L1125.68 313.295L1128.85 311.284L1129.67 312.716L1126.33 314.455L1129.67 316.193L1128.85 317.625L1125.68 315.614L1125.82 319.364H1124.18Z" fill="#997D7E" fill-opacity="0.83"/>
<path d="M1352.18 352.364L1352.32 348.614L1349.15 350.625L1348.33 349.193L1351.67 347.455L1348.33 345.716L1349.15 344.284L1352.32 346.295L1352.18 342.545H1353.82L1353.68 346.295L1356.85 344.284L1357.67 345.716L1354.33 347.455L1357.67 349.193L1356.85 350.625L1353.68 348.614L1353.82 352.364H1352.18Z" fill="#997D7E" fill-opacity="0.83"/>
<path d="M689.182 183.364L689.318 179.614L686.148 181.625L685.33 180.193L688.67 178.455L685.33 176.716L686.148 175.284L689.318 177.295L689.182 173.545H690.818L690.682 177.295L693.852 175.284L694.67 176.716L691.33 178.455L694.67 180.193L693.852 181.625L690.682 179.614L690.818 183.364H689.182Z" fill="#997D7E" fill-opacity="0.83"/>
</svg>
